<?xml version="1.0" encoding="UTF-8"?>
<svg id="Layer_1" data-name="Layer 1" xmlns="http://www.w3.org/2000/svg" viewBox="0 0 376.97 84.3">
  <defs>
    <style>
      .cls-1 {
        fill: #3c4a21;
      }
    </style>
  </defs>
  <path class="cls-1" d="m49.14,44.75l37.1-.61c1,13.59-12.99,29.83-12.99,29.83-9.32,6.21-18.96,10.33-30.58,10.33C19.55,84.3,0,67.85,0,42.89S19.9,1.03,43.59,1.03c10.81,0,25.6,2.75,39.2,17.04l-10.18,9.09-.44-.24c-6.44-5.52-18.23-11.63-27.66-11.63-15.3,0-28.18,11.04-28.18,27.83s12.77,27.03,26.91,27.03c8.05,0,14.59-1.39,17.67-4.62,1.62-1.69,6.24-7.47,6.24-7.47h-24.88l6.86-13.31Z"/>
  <path class="cls-1" d="m118.62,59.34v24.95h-15.99V15.63l-11.33.09v-4.37L102.63.21h22.66c22.92-.62,30.82,13.94,30.82,29.69,0,9.2-2.84,14.63-10,21.56-5.07,3.84-12.16,5.29-12.16,5.29l24.39,27.55h-17.52l-12.96-14.75m-4.52-26.54c10.81,0,16.45-5.06,16.45-12.88s-5.64-12.65-16.45-12.65h-4.72v25.53h4.72Z"/>
  <path class="cls-1" d="m233.11,31.05v53.25s-15.99,0-15.99,0v-23.23h-27.26v23.23s-15.99,0-15.99,0v-21.99s-11.46-.2-11.46-.2v-5.64l9.62-8.86,1.84-2.87v-13.69c0-19.55,13.57-30.02,29.67-30.02s29.56,10.47,29.56,30.02Zm-43.24,13.77h27.26v-14.11c0-10.47-6.27-13.23-13.63-13.23s-13.63,2.76-13.63,13.23v14.11Z"/>
  <path class="cls-1" d="m295.9.52l17.55-.12v1.27l-31.81,82.63h-4.14L242.73,1.67V.4l19.09.12,17.85,50.76L295.9.52Z"/>
  <path class="cls-1" d="m360.41,0l16.56.4v1.27l-17.54,39.06-1.04,43.57h-18.07l1.04-43.57L320.44,1.67V.4l19.57-.4,10.39,25.51,10.02-25.51Z"/>
</svg>